<svg width="286" height="274" viewBox="0 0 286 274" fill="none" xmlns="http://www.w3.org/2000/svg">
<path opacity="0.501" d="M142.544 99.1661C153.531 99.1661 164.068 103.531 171.836 111.299C179.605 119.068 183.97 129.605 183.97 140.592V239.847H101.118V140.592C101.118 129.605 105.482 119.068 113.251 111.299C121.02 103.531 131.557 99.1661 142.544 99.1661Z" fill="#204F38"/>
<path d="M129.014 147.961H121.574V172.648H129.014V147.961Z" fill="white"/>
<path d="M154.888 174.931H130.201V197.25H154.888V174.931Z" fill="white"/>
<path d="M154.888 147.961H130.201V172.648H154.888V147.961Z" fill="white"/>
<path d="M156.075 145.7H163.515V145.193C163.518 142.087 162.855 139.016 161.572 136.187C160.288 133.358 158.414 130.837 156.075 128.793V145.7Z" fill="white"/>
<path d="M130.201 145.673H154.888V127.184C151.258 124.684 146.953 123.348 142.545 123.354C138.137 123.348 133.831 124.684 130.201 127.184V145.673Z" fill="white"/>
<path d="M129.014 174.931H121.574V191.84C121.574 193.275 122.144 194.652 123.159 195.666C124.173 196.681 125.55 197.251 126.985 197.251H129.014V174.931Z" fill="white"/>
<path d="M156.075 174.931V197.251H158.104C159.539 197.251 160.915 196.681 161.93 195.666C162.945 194.652 163.515 193.275 163.515 191.84V174.931H156.075Z" fill="white"/>
<path d="M129.014 145.7V128.792C126.675 130.836 124.8 133.357 123.517 136.186C122.234 139.015 121.571 142.086 121.574 145.192V145.699L129.014 145.7Z" fill="white"/>
<path d="M163.514 147.961H156.074V172.648H163.514V147.961Z" fill="white"/>
<path d="M176.392 180.902C178.82 180.902 180.788 178.934 180.788 176.506C180.788 174.078 178.82 172.11 176.392 172.11C173.964 172.11 171.996 174.078 171.996 176.506C171.996 178.934 173.964 180.902 176.392 180.902Z" fill="black"/>
<path d="M46.2288 134.007H40.3898V153.383H46.2288V134.007Z" fill="#C5DBB2"/>
<path d="M64.8778 134.007H45.5018V153.383H64.8778V134.007Z" fill="#C5DBB2"/>
<path d="M71.4458 134.007H65.6068V153.383H71.4458V134.007Z" fill="#C5DBB2"/>
<path d="M65.6068 132.238H71.4458V131.838C71.4479 129.4 70.9279 126.99 69.9207 124.77C68.9136 122.549 67.4426 120.57 65.6068 118.966V132.238Z" fill="#C5DBB2"/>
<path d="M64.8778 155.172H45.5018V172.69H64.8778V155.172Z" fill="#C5DBB2"/>
<path d="M46.2289 155.172H40.3899V168.443C40.3899 169.569 40.8373 170.65 41.6338 171.446C42.4303 172.243 43.5105 172.69 44.6369 172.69H46.2299L46.2289 155.172Z" fill="#C5DBB2"/>
<path d="M65.6068 155.172V172.69H67.1998C68.3262 172.69 69.4064 172.243 70.2029 171.446C70.9993 170.65 71.4468 169.569 71.4468 168.443V155.172H65.6068Z" fill="#C5DBB2"/>
<path d="M46.2289 132.238V118.968C44.3931 120.572 42.9221 122.551 41.915 124.772C40.9078 126.992 40.3878 129.402 40.3899 131.84V132.24L46.2289 132.238Z" fill="#C5DBB2"/>
<path d="M45.5009 132.216H64.8769V117.704C62.0276 115.742 58.6485 114.693 55.1888 114.698C51.7292 114.693 48.3501 115.742 45.5009 117.704V132.216Z" fill="#C5DBB2"/>
<path d="M82.2559 174.873H32.8869C32.5707 174.872 32.2679 174.745 32.0443 174.522C31.8207 174.298 31.6944 173.995 31.6929 173.679V170.494C31.6944 170.178 31.8207 169.875 32.0443 169.652C32.2679 169.428 32.5707 169.302 32.8869 169.3H82.2559C82.572 169.302 82.8748 169.428 83.0984 169.652C83.322 169.875 83.4483 170.178 83.4499 170.494V173.673C83.4499 173.99 83.3243 174.295 83.1005 174.52C82.8768 174.744 82.5731 174.872 82.2559 174.873Z" fill="#C5DBB2"/>
<path d="M219.49 134.007H213.651V153.383H219.49V134.007Z" fill="#C5DBB2"/>
<path d="M239.596 134.007H220.22V153.383H239.596V134.007Z" fill="#C5DBB2"/>
<path d="M244.707 134.007H238.868V153.383H244.707V134.007Z" fill="#C5DBB2"/>
<path d="M238.868 132.238H244.707V131.838C244.709 129.4 244.189 126.99 243.182 124.77C242.175 122.549 240.704 120.57 238.868 118.966V132.238Z" fill="#C5DBB2"/>
<path d="M239.596 155.172H220.22V172.69H239.596V155.172Z" fill="#C5DBB2"/>
<path d="M219.49 155.172H213.651V168.443C213.651 169.569 214.098 170.65 214.895 171.446C215.691 172.243 216.772 172.69 217.898 172.69H219.491L219.49 155.172Z" fill="#C5DBB2"/>
<path d="M238.868 155.172V172.69H240.461C241.587 172.69 242.667 172.243 243.464 171.446C244.26 170.65 244.708 169.569 244.708 168.443V155.172H238.868Z" fill="#C5DBB2"/>
<path d="M219.49 132.238V118.968C217.654 120.572 216.183 122.551 215.176 124.772C214.169 126.992 213.649 129.402 213.651 131.84V132.24L219.49 132.238Z" fill="#C5DBB2"/>
<path d="M220.219 132.216H239.595V117.704C236.746 115.742 233.366 114.693 229.907 114.698C226.447 114.693 223.068 115.742 220.219 117.704V132.216Z" fill="#C5DBB2"/>
<path d="M252.334 174.873H202.965C202.648 174.872 202.345 174.746 202.122 174.522C201.898 174.298 201.771 173.995 201.77 173.679V170.494C201.771 170.178 201.898 169.875 202.122 169.651C202.345 169.428 202.648 169.301 202.965 169.3H252.334C252.65 169.302 252.953 169.428 253.176 169.652C253.4 169.875 253.526 170.178 253.528 170.494V173.673C253.528 173.99 253.402 174.295 253.178 174.52C252.955 174.744 252.651 174.872 252.334 174.873Z" fill="#C5DBB2"/>
<path d="M267.511 240.186H17.5769C14.6891 240.111 11.9488 238.894 9.95653 236.802C7.96423 234.71 6.88233 231.914 6.94788 229.026V58.9261C6.88233 56.0381 7.96423 53.2418 9.95653 51.15C11.9488 49.0581 14.6891 47.8413 17.5769 47.7661H267.511C270.399 47.8413 273.139 49.0581 275.131 51.15C277.124 53.2418 278.205 56.0381 278.14 58.9261V229.026C278.205 231.914 277.124 234.71 275.131 236.802C273.139 238.894 270.399 240.111 267.511 240.186ZM17.5769 48.4361C14.8644 48.5071 12.2906 49.6503 10.4193 51.6151C8.54797 53.58 7.53163 56.2064 7.59289 58.9191V229.019C7.53136 231.732 8.54758 234.359 10.4189 236.324C12.2903 238.289 14.8642 239.432 17.5769 239.503H267.511C270.224 239.432 272.797 238.289 274.669 236.324C276.54 234.359 277.556 231.732 277.495 229.019V58.9191C277.556 56.2062 276.54 53.5797 274.668 51.6148C272.797 49.6499 270.223 48.5069 267.51 48.4361H17.5769Z" fill="#CCCCCC"/>
<path opacity="0.495" d="M10.6838 67.5081C7.94172 67.4478 5.32337 66.355 3.35195 64.4481C1.38054 62.5412 0.201276 59.9607 0.0498155 57.2221C-0.210963 54.4793 0.558492 51.7376 2.20832 49.531C3.85816 47.3243 6.27024 45.8108 8.97482 45.2851L139.899 0.2231C141.599 -0.0716721 143.337 -0.0740394 145.038 0.2161L276.138 45.2921C278.993 45.8568 281.514 47.5174 283.16 49.9181C284.807 52.3189 285.447 55.2689 284.945 58.1361C284.759 59.5529 284.293 60.9184 283.573 62.1527C282.853 63.3871 281.894 64.4654 280.752 65.3245C279.61 66.1837 278.309 66.8064 276.923 67.1563C275.538 67.5061 274.097 67.5761 272.684 67.3621C271.272 67.1511 143.707 48.0701 142.543 48.0201C141.384 48.0701 13.6948 67.1691 12.4048 67.3621C11.8363 67.4592 11.2606 67.5081 10.6838 67.5081Z" fill="#204F38"/>
<path d="M198.755 212.745C199.038 212.378 199.237 211.953 199.338 211.501C199.439 211.048 199.439 210.579 199.339 210.126C199.239 209.674 199.041 209.249 198.759 208.881C198.477 208.513 198.118 208.211 197.707 207.997L198.334 200.778L194.04 199.327L193.298 209.534C192.983 210.249 192.942 211.055 193.181 211.798C193.421 212.541 193.926 213.171 194.599 213.567C195.272 213.963 196.067 214.098 196.834 213.947C197.6 213.795 198.283 213.368 198.755 212.745Z" fill="#FFB8B8"/>
<path d="M219.214 269.45H215.348L213.51 254.538H219.216L219.214 269.45Z" fill="#FFB8B8"/>
<path d="M212.619 268.34H220.075V273.034H207.924C207.924 272.418 208.045 271.807 208.281 271.238C208.517 270.668 208.863 270.15 209.299 269.715C209.735 269.279 210.253 268.933 210.822 268.697C211.392 268.461 212.002 268.34 212.619 268.34Z" fill="#2F2E41"/>
<path d="M210.885 259.551L207.131 260.474L201.786 246.432L207.327 245.07L210.885 259.551Z" fill="#FFB8B8"/>
<path d="M204.155 260.058L211.394 258.276L212.517 262.835L200.718 265.739C200.422 264.53 200.617 263.253 201.262 262.188C201.906 261.123 202.946 260.357 204.155 260.058Z" fill="#2F2E41"/>
<path d="M214.818 264.692C214.465 264.693 214.124 264.563 213.862 264.326C213.6 264.09 213.435 263.765 213.399 263.414L208.95 221.97L205.079 234.643L210.562 254.437C210.656 254.776 210.622 255.139 210.466 255.454C210.309 255.77 210.042 256.017 209.715 256.147L205.356 257.891C205.176 257.963 204.984 257.997 204.791 257.993C204.598 257.988 204.408 257.945 204.232 257.865C204.056 257.785 203.898 257.67 203.768 257.527C203.638 257.384 203.538 257.217 203.474 257.034L196.754 237.755C196.018 235.65 195.693 233.424 195.795 231.196L196.733 210.39L221.433 211.436L221.047 262.911C221.042 263.27 220.904 263.613 220.659 263.875C220.415 264.137 220.081 264.298 219.724 264.327L214.924 264.688C214.892 264.691 214.855 264.692 214.818 264.692Z" fill="#FECB32"/>
<path d="M210.736 163.275C215.323 163.275 219.042 159.556 219.042 154.969C219.042 150.382 215.323 146.663 210.736 146.663C206.149 146.663 202.43 150.382 202.43 154.969C202.43 159.556 206.149 163.275 210.736 163.275Z" fill="#FFB8B8"/>
<path d="M216.814 212.116C214.627 212.116 211.909 211.937 209.098 211.752C205.514 211.439 201.915 211.324 198.319 211.409C197.918 211.449 197.514 211.385 197.145 211.225C196.776 211.064 196.455 210.811 196.211 210.491C193.154 206.577 197.869 191.314 198.071 190.666L201.908 173.599C202.246 171.838 203.093 170.216 204.344 168.931C205.595 167.647 207.196 166.758 208.947 166.373C210.548 166.051 212.208 166.213 213.717 166.838C215.225 167.463 216.513 168.522 217.418 169.882C217.526 170.033 217.633 170.189 217.741 170.348C224.353 180.14 220.613 204.469 220.362 206.039C220.711 206.457 222.6 208.823 222.081 210.466C221.943 210.823 221.713 211.137 221.413 211.375C221.113 211.614 220.755 211.767 220.376 211.82C219.203 212.052 218.008 212.152 216.814 212.116Z" fill="#CCCCCC"/>
<path d="M199.014 212.126C197.925 212.04 196.862 211.752 195.878 211.279C195.29 211.034 193.5 210.29 195.673 191.302C196.74 181.975 198.273 172.713 198.285 172.621L198.3 172.532L198.383 172.495C198.422 172.477 202.327 170.687 203.006 168.388C203.029 168.308 203.055 168.231 203.085 168.156C203.271 167.645 203.648 167.225 204.137 166.985C204.626 166.745 205.188 166.703 205.707 166.868C206.255 166.999 206.733 167.333 207.043 167.804C207.354 168.274 207.474 168.845 207.379 169.4C207.142 170.9 206.687 172.358 206.029 173.726C204.192 177.517 202.947 187.567 202.935 187.668C202.865 188.526 201.197 208.862 200.876 210.405C200.844 210.711 200.745 211.006 200.585 211.269C200.426 211.531 200.209 211.755 199.952 211.923C199.661 212.067 199.338 212.137 199.014 212.126Z" fill="#90BBDF"/>
<path d="M207.275 211.342C207.123 211.342 206.976 211.291 206.856 211.198C204.413 209.341 208.367 186.832 210.713 179.066C211.183 177.511 211.601 176.179 211.956 175.107C212.603 173.184 213.055 171.201 213.305 169.187C213.434 168.096 213.715 167.473 214.163 167.287C214.352 167.229 214.553 167.223 214.744 167.27C214.936 167.317 215.112 167.416 215.252 167.555C217.441 167.601 219.583 168.204 221.475 169.307L223.231 170.183L225.201 205.065C225.145 207.291 220.757 208.865 218.842 208.965C215.769 209.126 210.25 209.626 207.817 211.165C207.657 211.276 207.469 211.339 207.275 211.346V211.342Z" fill="#90BBDF"/>
<path d="M197.304 204.76H197.217L193.237 204.515C193.039 204.503 192.845 204.45 192.669 204.359C192.493 204.268 192.337 204.141 192.212 203.987C192.087 203.832 191.996 203.654 191.944 203.462C191.892 203.271 191.88 203.07 191.91 202.874L193.71 190.944L197.1 174.205C197.183 173.793 197.352 173.402 197.596 173.059C197.84 172.716 198.153 172.428 198.515 172.214C198.877 172 199.281 171.865 199.699 171.817C200.117 171.769 200.54 171.81 200.942 171.936C201.628 172.155 202.214 172.612 202.592 173.225C202.971 173.837 203.119 174.565 203.008 175.277L200.315 192.049L198.721 203.529C198.671 203.87 198.501 204.182 198.241 204.408C197.981 204.634 197.648 204.759 197.304 204.76Z" fill="#72A1D5"/>
<path d="M212.209 163.057C213.459 163.084 214.701 162.847 215.853 162.36C217.004 161.873 218.04 161.148 218.892 160.232C219.743 159.316 220.391 158.23 220.793 157.046C221.195 155.862 221.342 154.606 221.224 153.362C221.106 152.117 220.726 150.911 220.109 149.823C219.492 148.736 218.651 147.791 217.643 147.051C216.635 146.312 215.481 145.794 214.259 145.532C213.036 145.27 211.772 145.27 210.549 145.531C208.75 144.347 206.621 143.764 204.47 143.865C203.4 143.933 202.368 144.287 201.483 144.892C200.598 145.497 199.892 146.33 199.441 147.302C199.04 148.294 199.027 149.4 199.404 150.4C199.782 151.401 200.523 152.223 201.479 152.702C202.801 153.084 204.202 153.104 205.535 152.76C206.872 152.417 208.287 152.542 209.544 153.114C210.723 153.814 211.252 155.686 210.197 156.559C209.637 157.041 209.237 157.681 209.05 158.396C208.864 159.111 208.9 159.865 209.154 160.559C209.401 161.206 209.813 161.776 210.349 162.214C210.885 162.652 211.526 162.943 212.209 163.057Z" fill="#2F2E41"/>
<path d="M194.657 163.978C192.507 164.002 190.453 164.873 188.941 166.401C187.429 167.93 186.581 169.994 186.581 172.144C186.581 174.294 187.429 176.357 188.941 177.886C190.453 179.415 192.507 180.285 194.657 180.309C195.737 180.321 196.808 180.119 197.809 179.714C198.811 179.309 199.721 178.709 200.489 177.95C201.257 177.19 201.867 176.286 202.283 175.29C202.699 174.293 202.913 173.224 202.913 172.144C202.913 171.064 202.699 169.994 202.283 168.998C201.867 168.001 201.257 167.097 200.489 166.338C199.721 165.578 198.811 164.979 197.809 164.574C196.808 164.169 195.737 163.966 194.657 163.978Z" fill="#69A03A"/>
<path d="M193.949 175.518C193.732 175.519 193.522 175.449 193.349 175.318L193.338 175.31L191.092 173.592C190.901 173.425 190.781 173.191 190.756 172.938C190.731 172.686 190.803 172.433 190.957 172.232C191.111 172.03 191.337 171.895 191.587 171.853C191.838 171.812 192.095 171.867 192.306 172.008L193.761 173.123L197.198 168.639C197.359 168.429 197.597 168.292 197.86 168.257C198.122 168.223 198.387 168.293 198.598 168.454L198.577 168.484L198.599 168.454C198.809 168.615 198.946 168.853 198.981 169.116C199.015 169.378 198.945 169.644 198.784 169.854L194.741 175.126C194.647 175.247 194.527 175.346 194.389 175.413C194.251 175.481 194.1 175.516 193.947 175.515L193.949 175.518Z" fill="white"/>
<path d="M211.53 186.982H182.872C182.103 186.982 181.365 187.288 180.821 187.832C180.277 188.375 179.972 189.113 179.972 189.882V218.54C179.972 219.309 180.277 220.047 180.821 220.591C181.365 221.135 182.103 221.44 182.872 221.44H211.53C212.299 221.44 213.037 221.135 213.58 220.591C214.124 220.047 214.43 219.309 214.43 218.54V189.884C214.43 189.503 214.355 189.126 214.21 188.774C214.064 188.422 213.85 188.102 213.581 187.832C213.312 187.563 212.992 187.349 212.64 187.203C212.288 187.057 211.911 186.982 211.53 186.982Z" fill="#CCCCCC"/>
<path d="M205.222 208.354L191.691 210.99C190.888 211.145 190.057 210.976 189.379 210.519C188.701 210.062 188.232 209.355 188.075 208.553L187.035 203.212C186.879 202.41 187.049 201.578 187.506 200.9C187.962 200.222 188.67 199.753 189.472 199.596L203.003 196.961C203.805 196.806 204.637 196.975 205.315 197.432C205.993 197.889 206.462 198.596 206.619 199.398L207.659 204.739C207.814 205.542 207.644 206.373 207.187 207.05C206.731 207.728 206.024 208.197 205.222 208.354Z" fill="white"/>
<path d="M202.608 202.001L192.282 204.012C192.187 204.035 192.088 204.038 191.991 204.022C191.895 204.005 191.802 203.969 191.72 203.916C191.638 203.863 191.567 203.794 191.512 203.713C191.457 203.632 191.419 203.541 191.4 203.445C191.382 203.349 191.383 203.25 191.403 203.154C191.424 203.058 191.463 202.967 191.52 202.887C191.576 202.807 191.648 202.74 191.732 202.688C191.815 202.637 191.908 202.603 192.005 202.588L202.331 200.577C202.516 200.549 202.705 200.594 202.858 200.702C203.011 200.81 203.116 200.973 203.152 201.156C203.187 201.34 203.151 201.531 203.05 201.688C202.948 201.845 202.79 201.958 202.608 202.001Z" fill="#69A03A"/>
<path d="M200.625 205.001L195.284 206.041C195.189 206.064 195.09 206.067 194.993 206.051C194.897 206.034 194.804 205.998 194.722 205.945C194.64 205.892 194.569 205.823 194.514 205.742C194.459 205.661 194.421 205.57 194.402 205.474C194.384 205.377 194.385 205.279 194.405 205.183C194.426 205.087 194.465 204.996 194.522 204.916C194.578 204.836 194.65 204.769 194.734 204.717C194.817 204.666 194.91 204.632 195.007 204.617L200.348 203.577C200.533 203.549 200.722 203.594 200.875 203.702C201.028 203.81 201.133 203.973 201.169 204.156C201.204 204.34 201.168 204.531 201.066 204.688C200.965 204.845 200.807 204.958 200.625 205.001Z" fill="#69A03A"/>
<path d="M214.432 189.679V193.488H179.969V189.679C179.969 188.91 180.274 188.172 180.818 187.628C181.362 187.085 182.1 186.779 182.869 186.779H211.527C211.908 186.778 212.286 186.853 212.638 186.998C212.99 187.144 213.311 187.357 213.581 187.627C213.85 187.896 214.065 188.216 214.211 188.568C214.357 188.92 214.432 189.298 214.432 189.679Z" fill="#B3B3B3"/>
<path d="M209.898 191.689C210.141 191.294 210.467 190.957 210.854 190.702C211.241 190.447 211.679 190.28 212.138 190.212C212.596 190.145 213.064 190.179 213.508 190.312C213.952 190.444 214.362 190.673 214.708 190.981L221.233 187.829L224.115 191.329L214.838 195.651C214.282 196.199 213.543 196.524 212.764 196.563C211.984 196.603 211.217 196.356 210.607 195.867C209.998 195.379 209.589 194.684 209.458 193.914C209.327 193.144 209.483 192.353 209.897 191.691L209.898 191.689Z" fill="#FFB8B8"/>
<path d="M218.647 195.01C218.325 195.01 218.013 194.901 217.76 194.702C217.508 194.502 217.33 194.223 217.256 193.91L216.308 189.97C216.236 189.674 216.26 189.362 216.379 189.081C216.497 188.8 216.702 188.564 216.964 188.408L222.68 184.987L219.758 174.287C219.552 173.527 219.597 172.72 219.886 171.987C220.162 171.293 220.645 170.7 221.27 170.29C221.895 169.88 222.63 169.672 223.377 169.695C224.124 169.718 224.846 169.97 225.445 170.418C226.043 170.866 226.489 171.487 226.722 172.197L229.948 182.046C230.344 183.247 230.347 184.542 229.957 185.745C229.567 186.948 228.803 187.994 227.777 188.733L219.485 194.733C219.242 194.912 218.948 195.009 218.647 195.01Z" fill="#72A1D5"/>
<path d="M228.407 273.322H193.913C193.823 273.322 193.737 273.286 193.674 273.223C193.61 273.16 193.575 273.074 193.575 272.984C193.575 272.894 193.61 272.809 193.674 272.745C193.737 272.682 193.823 272.646 193.913 272.646H228.407C228.497 272.646 228.582 272.682 228.646 272.745C228.709 272.809 228.745 272.894 228.745 272.984C228.745 273.074 228.709 273.16 228.646 273.223C228.582 273.286 228.497 273.322 228.407 273.322Z" fill="#CCCCCC"/>
</svg>
