<svg width="66" height="66" viewBox="0 0 66 66" fill="none" xmlns="http://www.w3.org/2000/svg">
<g filter="url(#filter0_d_1_3059)">
<rect x="4" y="4" width="58" height="58" rx="29" fill="#FFF3C9" shape-rendering="crispEdges"/>
<path d="M21 31.9989H33V33.9989H21V31.9989ZM19 26.9989H29V28.9989H19V26.9989Z" fill="#FEC500"/>
<path d="M46.919 32.6049L43.919 25.6049C43.842 25.425 43.7139 25.2717 43.5505 25.1639C43.3871 25.0562 43.1957 24.9988 43 24.9989H40V22.9989C40 22.7337 39.8946 22.4794 39.7071 22.2918C39.5196 22.1043 39.2652 21.9989 39 21.9989H23V23.9989H38V36.5549C37.5443 36.8195 37.1456 37.1717 36.8267 37.5912C36.5078 38.0106 36.2751 38.4891 36.142 38.9989H29.858C29.6146 38.0563 29.0358 37.2347 28.23 36.6883C27.4242 36.1419 26.4468 35.9081 25.481 36.0308C24.5152 36.1535 23.6273 36.6242 22.9837 37.3547C22.3401 38.0852 21.985 39.0254 21.985 39.9989C21.985 40.9725 22.3401 41.9127 22.9837 42.6432C23.6273 43.3737 24.5152 43.8444 25.481 43.9671C26.4468 44.0897 27.4242 43.8559 28.23 43.3095C29.0358 42.7631 29.6146 41.9416 29.858 40.9989H36.142C36.3595 41.8572 36.857 42.6184 37.5558 43.1621C38.2545 43.7058 39.1146 44.0011 40 44.0011C40.8854 44.0011 41.7455 43.7058 42.4442 43.1621C43.143 42.6184 43.6405 41.8572 43.858 40.9989H46C46.2652 40.9989 46.5196 40.8936 46.7071 40.706C46.8946 40.5185 47 40.2641 47 39.9989V32.9989C47 32.8635 46.9725 32.7294 46.919 32.6049ZM26 41.9989C25.6044 41.9989 25.2178 41.8816 24.8889 41.6619C24.56 41.4421 24.3036 41.1298 24.1522 40.7643C24.0009 40.3988 23.9613 39.9967 24.0384 39.6088C24.1156 39.2208 24.3061 38.8644 24.5858 38.5847C24.8655 38.305 25.2219 38.1145 25.6098 38.0374C25.9978 37.9602 26.3999 37.9998 26.7654 38.1512C27.1308 38.3025 27.4432 38.5589 27.6629 38.8878C27.8827 39.2167 28 39.6034 28 39.9989C27.9995 40.5292 27.7886 41.0376 27.4136 41.4126C27.0387 41.7875 26.5303 41.9984 26 41.9989ZM40 26.9989H42.34L44.484 31.9989H40V26.9989ZM40 41.9989C39.6044 41.9989 39.2178 41.8816 38.8889 41.6619C38.56 41.4421 38.3036 41.1298 38.1522 40.7643C38.0009 40.3988 37.9613 39.9967 38.0384 39.6088C38.1156 39.2208 38.3061 38.8644 38.5858 38.5847C38.8655 38.305 39.2219 38.1145 39.6098 38.0374C39.9978 37.9602 40.3999 37.9998 40.7654 38.1512C41.1308 38.3025 41.4432 38.5589 41.6629 38.8878C41.8827 39.2167 42 39.6034 42 39.9989C41.9995 40.5292 41.7886 41.0376 41.4136 41.4126C41.0387 41.7875 40.5303 41.9984 40 41.9989ZM45 38.9989H43.858C43.6377 38.1424 43.1394 37.3831 42.4412 36.8402C41.743 36.2973 40.8844 36.0014 40 35.9989V33.9989H45V38.9989Z" fill="#FEC500"/>
</g>
<defs>
<filter id="filter0_d_1_3059" x="0" y="0" width="66" height="66" filterUnits="userSpaceOnUse" color-interpolation-filters="sRGB">
<feFlood flood-opacity="0" result="BackgroundImageFix"/>
<feColorMatrix in="SourceAlpha" type="matrix" values="0 0 0 0 0 0 0 0 0 0 0 0 0 0 0 0 0 0 127 0" result="hardAlpha"/>
<feOffset/>
<feGaussianBlur stdDeviation="2"/>
<feComposite in2="hardAlpha" operator="out"/>
<feColorMatrix type="matrix" values="0 0 0 0 0 0 0 0 0 0 0 0 0 0 0 0 0 0 0.25 0"/>
<feBlend mode="normal" in2="BackgroundImageFix" result="effect1_dropShadow_1_3059"/>
<feBlend mode="normal" in="SourceGraphic" in2="effect1_dropShadow_1_3059" result="shape"/>
</filter>
</defs>
</svg>
