<svg width="66" height="66" viewBox="0 0 66 66" fill="none" xmlns="http://www.w3.org/2000/svg">
<g filter="url(#filter0_d_1_3057)">
<rect x="4" y="4" width="58" height="58" rx="29" fill="#C0FBC8" shape-rendering="crispEdges"/>
<path d="M37.5 44.18L34.91 41.59L33.5 43L37.5 47L45.5 39L44.09 37.59L37.5 44.18Z" fill="#00BB1A"/>
<path d="M40.5 22H37.5V21C37.4984 20.4701 37.2872 19.9623 36.9125 19.5875C36.5377 19.2128 36.0299 19.0016 35.5 19H27.5C26.9701 19.0016 26.4623 19.2128 26.0875 19.5875C25.7128 19.9623 25.5016 20.4701 25.5 21V22H22.5C21.9701 22.0016 21.4623 22.2128 21.0875 22.5875C20.7128 22.9623 20.5016 23.4701 20.5 24V45C20.5016 45.5299 20.7128 46.0377 21.0875 46.4125C21.4623 46.7872 21.9701 46.9984 22.5 47H31.5V45H22.5V24H25.5V27H37.5V24H40.5V35H42.5V24C42.4984 23.4701 42.2872 22.9623 41.9125 22.5875C41.5377 22.2128 41.0299 22.0016 40.5 22ZM35.5 25H27.5V21H35.5V25Z" fill="#00BB1A"/>
</g>
<defs>
<filter id="filter0_d_1_3057" x="0" y="0" width="66" height="66" filterUnits="userSpaceOnUse" color-interpolation-filters="sRGB">
<feFlood flood-opacity="0" result="BackgroundImageFix"/>
<feColorMatrix in="SourceAlpha" type="matrix" values="0 0 0 0 0 0 0 0 0 0 0 0 0 0 0 0 0 0 127 0" result="hardAlpha"/>
<feOffset/>
<feGaussianBlur stdDeviation="2"/>
<feComposite in2="hardAlpha" operator="out"/>
<feColorMatrix type="matrix" values="0 0 0 0 0 0 0 0 0 0 0 0 0 0 0 0 0 0 0.25 0"/>
<feBlend mode="normal" in2="BackgroundImageFix" result="effect1_dropShadow_1_3057"/>
<feBlend mode="normal" in="SourceGraphic" in2="effect1_dropShadow_1_3057" result="shape"/>
</filter>
</defs>
</svg>
