<svg width="66" height="66" viewBox="0 0 66 66" fill="none" xmlns="http://www.w3.org/2000/svg">
<g filter="url(#filter0_d_1_3055)">
<rect x="4" y="4" width="58" height="58" rx="29" fill="#9CE2FF" shape-rendering="crispEdges"/>
<path d="M49.59 38L45.51 33L49.51 28.1C49.7288 27.8319 49.8666 27.5071 49.9074 27.1635C49.9481 26.8199 49.89 26.4718 49.74 26.16C49.588 25.8105 49.336 25.5139 49.0156 25.3075C48.6953 25.101 48.321 24.994 47.94 25H16.94C16.6892 24.996 16.44 25.0415 16.2068 25.1338C15.9735 25.2262 15.7607 25.3636 15.5806 25.5381C15.4004 25.7127 15.2564 25.9211 15.1568 26.1513C15.0572 26.3816 15.0039 26.6292 15 26.88V39.13C15.0105 39.6348 15.2205 40.115 15.584 40.4654C15.9476 40.8158 16.4351 41.008 16.94 41H48.05C48.4183 41.0062 48.7806 40.9068 49.0943 40.7137C49.4079 40.5205 49.6597 40.2416 49.82 39.91C49.9639 39.6019 50.0186 39.2597 49.978 38.9221C49.9373 38.5845 49.8029 38.2651 49.59 38ZM17 39V27H47.78L42.94 32.93L47.85 39H17Z" fill="#28B0E8"/>
<path d="M24.39 34.35L21.13 30H20V36.18H21.13V31.84L24.39 36.18H25.51V30H24.39V34.35Z" fill="#28B0E8"/>
<path d="M27.18 36.18H31.84V35.16H28.31V33.55H31.5V32.52H28.31V31.03H31.84V30H27.18V36.18Z" fill="#28B0E8"/>
<path d="M39.52 34.43L38.06 30H36.84L35.37 34.43L34.05 30H32.82L34.78 36.18H35.89L37.45 31.59L39 36.18H40.13L42.08 30H40.85L39.52 34.43Z" fill="#28B0E8"/>
</g>
<defs>
<filter id="filter0_d_1_3055" x="0" y="0" width="66" height="66" filterUnits="userSpaceOnUse" color-interpolation-filters="sRGB">
<feFlood flood-opacity="0" result="BackgroundImageFix"/>
<feColorMatrix in="SourceAlpha" type="matrix" values="0 0 0 0 0 0 0 0 0 0 0 0 0 0 0 0 0 0 127 0" result="hardAlpha"/>
<feOffset/>
<feGaussianBlur stdDeviation="2"/>
<feComposite in2="hardAlpha" operator="out"/>
<feColorMatrix type="matrix" values="0 0 0 0 0 0 0 0 0 0 0 0 0 0 0 0 0 0 0.25 0"/>
<feBlend mode="normal" in2="BackgroundImageFix" result="effect1_dropShadow_1_3055"/>
<feBlend mode="normal" in="SourceGraphic" in2="effect1_dropShadow_1_3055" result="shape"/>
</filter>
</defs>
</svg>
