<svg width="66" height="66" viewBox="0 0 66 66" fill="none" xmlns="http://www.w3.org/2000/svg">
<g filter="url(#filter0_d_1_3051)">
<rect x="4" y="4" width="58" height="58" rx="29" fill="#84A6FF" shape-rendering="crispEdges"/>
<path d="M38.25 29.8421C38.25 36.5747 27.75 36.5747 27.75 29.8421H30.375C30.375 33.2147 35.625 33.2147 35.625 29.8421M43.5 41.2105V45H22.5V41.2105C22.5 37.8379 29.4956 36.1579 33 36.1579C36.5044 36.1579 43.5 37.8379 43.5 41.2105ZM41.0063 41.2105C41.0063 40.4021 36.8981 38.5579 33 38.5579C29.1019 38.5579 24.9938 40.4021 24.9938 41.2105V42.6H41.0063M33.6562 21C34.0238 21 34.3125 21.2779 34.3125 21.6316V25.4211H35.625V22.2632C36.5539 22.6769 37.3321 23.3497 37.8587 24.1944C38.3853 25.039 38.6359 26.0165 38.5781 27C38.5781 27 39.4969 27.1768 39.5625 28.5789H26.4375C26.4375 27.1768 27.4219 27 27.4219 27C27.3641 26.0165 27.6147 25.039 28.1413 24.1944C28.6679 23.3497 29.4461 22.6769 30.375 22.2632V25.4211H31.6875V21.6316C31.6875 21.2779 31.9762 21 32.3438 21" fill="#264493"/>
</g>
<defs>
<filter id="filter0_d_1_3051" x="0" y="0" width="66" height="66" filterUnits="userSpaceOnUse" color-interpolation-filters="sRGB">
<feFlood flood-opacity="0" result="BackgroundImageFix"/>
<feColorMatrix in="SourceAlpha" type="matrix" values="0 0 0 0 0 0 0 0 0 0 0 0 0 0 0 0 0 0 127 0" result="hardAlpha"/>
<feOffset/>
<feGaussianBlur stdDeviation="2"/>
<feComposite in2="hardAlpha" operator="out"/>
<feColorMatrix type="matrix" values="0 0 0 0 0 0 0 0 0 0 0 0 0 0 0 0 0 0 0.25 0"/>
<feBlend mode="normal" in2="BackgroundImageFix" result="effect1_dropShadow_1_3051"/>
<feBlend mode="normal" in="SourceGraphic" in2="effect1_dropShadow_1_3051" result="shape"/>
</filter>
</defs>
</svg>
