<svg width="66" height="66" viewBox="0 0 66 66" fill="none" xmlns="http://www.w3.org/2000/svg">
<g filter="url(#filter0_d_1_3053)">
<rect x="4" y="4" width="58" height="58" rx="29" fill="#F2A1FF" shape-rendering="crispEdges"/>
<path fill-rule="evenodd" clip-rule="evenodd" d="M38.1395 22.7561V24.7346L40.5581 26.6078V22.7561H38.1395ZM42.3721 28.0127V22.4634C42.3721 21.6556 41.6949 21 40.8605 21H37.8372C37.0028 21 36.3256 21.6556 36.3256 22.4634V23.3298L35.8334 22.9481C35.0292 22.3251 34.03 21.9857 33 21.9857C31.97 21.9857 30.9708 22.3251 30.1666 22.9481L20.341 30.5579C20.1531 30.7033 20.0325 30.9151 20.0059 31.1466C19.9792 31.3782 20.0487 31.6104 20.1989 31.7924C20.3492 31.9743 20.568 32.0911 20.8071 32.1169C21.0463 32.1426 21.2862 32.0754 21.4741 31.93L22.4186 31.1971V43.2439H20.907C20.6664 43.2439 20.4357 43.3364 20.2656 43.5011C20.0956 43.6657 20 43.8891 20 44.122C20 44.3548 20.0956 44.5782 20.2656 44.7428C20.4357 44.9075 20.6664 45 20.907 45H45.093C45.3336 45 45.5643 44.9075 45.7344 44.7428C45.9044 44.5782 46 44.3548 46 44.122C46 43.8891 45.9044 43.6657 45.7344 43.5011C45.5643 43.3364 45.3336 43.2439 45.093 43.2439H43.5814V31.1971L44.5271 31.93C44.7153 32.072 44.9538 32.1364 45.1909 32.1094C45.4279 32.0823 45.6443 31.9659 45.7933 31.7853C45.9422 31.6048 46.0116 31.3747 45.9865 31.1449C45.9614 30.9151 45.8437 30.7042 45.659 30.5579L42.3721 28.0127ZM41.7674 29.7922L34.7003 24.319C34.2177 23.9451 33.6181 23.7414 33 23.7414C32.3819 23.7414 31.7823 23.9451 31.2997 24.319L24.2326 29.7922V43.2439H28.4651V38.2098C28.4651 37.4324 28.4651 36.7616 28.5401 36.2242C28.6199 35.6482 28.8001 35.0968 29.262 34.6496C29.724 34.2023 30.2948 34.0279 30.8886 33.9506C31.4436 33.878 32.1366 33.878 32.9407 33.878H33.0593C33.8634 33.878 34.5564 33.878 35.1114 33.9506C35.7064 34.0279 36.276 34.2023 36.738 34.6496C37.1999 35.0968 37.3801 35.6482 37.4599 36.2242C37.5349 36.7616 37.5349 37.4324 37.5349 38.2109V43.2439H41.7674V29.7922ZM35.7209 43.2439V38.2683C35.7209 37.416 35.7185 36.8634 35.6629 36.4583C35.6097 36.0779 35.525 35.9584 35.4549 35.8917C35.386 35.825 35.2626 35.7419 34.8696 35.6903C34.45 35.6365 33.8804 35.6341 33 35.6341C32.1196 35.6341 31.5488 35.6365 31.1304 35.6903C30.7374 35.7419 30.614 35.825 30.5451 35.8917C30.4762 35.9584 30.3903 36.0779 30.3371 36.4583C30.2815 36.8646 30.2791 37.416 30.2791 38.2683V43.2439H35.7209ZM33 28.0244C32.8015 28.0244 32.6049 28.0622 32.4215 28.1358C32.2381 28.2093 32.0715 28.3171 31.9311 28.453C31.7907 28.5889 31.6794 28.7502 31.6034 28.9278C31.5275 29.1053 31.4884 29.2956 31.4884 29.4878C31.4884 29.68 31.5275 29.8703 31.6034 30.0478C31.6794 30.2254 31.7907 30.3867 31.9311 30.5226C32.0715 30.6585 32.2381 30.7663 32.4215 30.8398C32.6049 30.9134 32.8015 30.9512 33 30.9512C33.4009 30.9512 33.7854 30.797 34.0689 30.5226C34.3524 30.2482 34.5116 29.8759 34.5116 29.4878C34.5116 29.0997 34.3524 28.7275 34.0689 28.453C33.7854 28.1786 33.4009 28.0244 33 28.0244ZM29.6744 29.4878C29.6744 28.6339 30.0248 27.815 30.6485 27.2113C31.2721 26.6075 32.118 26.2683 33 26.2683C33.882 26.2683 34.7279 26.6075 35.3515 27.2113C35.9752 27.815 36.3256 28.6339 36.3256 29.4878C36.3256 30.3417 35.9752 31.1606 35.3515 31.7643C34.7279 32.3681 33.882 32.7073 33 32.7073C32.118 32.7073 31.2721 32.3681 30.6485 31.7643C30.0248 31.1606 29.6744 30.3417 29.6744 29.4878Z" fill="#CD28E8"/>
</g>
<defs>
<filter id="filter0_d_1_3053" x="0" y="0" width="66" height="66" filterUnits="userSpaceOnUse" color-interpolation-filters="sRGB">
<feFlood flood-opacity="0" result="BackgroundImageFix"/>
<feColorMatrix in="SourceAlpha" type="matrix" values="0 0 0 0 0 0 0 0 0 0 0 0 0 0 0 0 0 0 127 0" result="hardAlpha"/>
<feOffset/>
<feGaussianBlur stdDeviation="2"/>
<feComposite in2="hardAlpha" operator="out"/>
<feColorMatrix type="matrix" values="0 0 0 0 0 0 0 0 0 0 0 0 0 0 0 0 0 0 0.25 0"/>
<feBlend mode="normal" in2="BackgroundImageFix" result="effect1_dropShadow_1_3053"/>
<feBlend mode="normal" in="SourceGraphic" in2="effect1_dropShadow_1_3053" result="shape"/>
</filter>
</defs>
</svg>
